# xmcd CD database file
#
# Track frame offsets:
#	150
#	52317
#	122685
#	187893
#
# Disc length: 3451 seconds
#
# Revision: 0
# Processed by: cddbd v1.5.1PL0 Copyright (c) Steve Scherf et al.
# Submitted via: CDex 1.51
#
DISCID=330d7904
DTITLE=Healing Therapy Music - Yoga
DYEAR=1900
DGENRE=New Age
TTITLE0=Pranayama
TTITLE1=Peacefulness
TTITLE2=Shape of Energy
TTITLE3=Meditation
EXTD=
EXTT0=
EXTT1=
EXTT2=
EXTT3=
PLAYORDER=
